<?xml version="1.0" encoding="UTF-8"?>
<svg id="_Слой_1" data-name="Слой 1" xmlns="http://www.w3.org/2000/svg" viewBox="0 0 2805 1626">
  <defs>
    <style>
      .cls-1 {
        stroke-width: 0px;
      }

      .cls-1, .cls-2 {
        fill: #379042;
      }

      .cls-2 {
        font-family: Manrope-ExtraBold, Manrope;
        font-size: 258.66px;
        font-weight: 700;
      }
    </style>
  </defs>
  <path class="cls-1" d="m1212.26,609.39s112.78,216.07,347.82,122.26c0,0,167.6-84.11,113.53-239.59-2.85-8.19-13.25-10.61-19.44-4.55-27.2,26.62-87.14,92.75-195.27,111.33,0,0-110.67,20.03-193.93-80.1,0,0-92.75-113.83-120.15,42.16,0,0-50.59,316.2,284.58,366.79,0,0,202.37,42.16,303.55-122.26,0,0-31.62,257.17-366.79,204.47,0,0-316.2-59.02-322.52-387.87,0,0-10.68-220.97,131.13-229.97,33.35-2.12,66.26,8.46,92.89,28.63,17.03,12.9,41.94,32.76,75.03,61.56,48.05,41.83,118.26,47.39,171.46,12.34,19.27-12.69,40.28-30.14,62.81-53.85,0,0,105.71-104.1,165.33,24.51,19.59,42.25,24.08,89.89,14.32,135.43-19.51,91.08-86.78,245.03-318.78,240.57,0,0-208.69-14.76-225.55-231.88Z"/>
  <path class="cls-1" d="m1413.57,456.56s-67.46-193.93,158.1-255.06c0,0,33.73,168.64-158.1,255.06Z"/>
  <text class="cls-2" transform="translate(1168.58 1343.02)"><tspan x="0" y="0">SLB</tspan></text>
</svg>